<?xml version="1.0" standalone="no"?>
<!DOCTYPE svg PUBLIC "-//W3C//DTD SVG 20010904//EN"
 "http://www.w3.org/TR/2001/REC-SVG-20010904/DTD/svg10.dtd">
<svg version="1.0" xmlns="http://www.w3.org/2000/svg"
 width="700.000000pt" height="700.000000pt" viewBox="0 0 700.000000 700.000000"
 preserveAspectRatio="xMidYMid meet">
<metadata>
Created by potrace 1.14, written by Peter Selinger 2001-2017
</metadata>
<g transform="translate(0.000000,700.000000) scale(0.100000,-0.100000)"
fill="#000000" stroke="none">
<path d="M2147 5124 c-1 -1 -79 -5 -172 -8 -235 -8 -304 -28 -377 -110 -14
-16 -72 -120 -129 -230 -56 -111 -117 -229 -135 -263 -18 -35 -29 -65 -26 -67
12 -6 5115 2 5162 8 120 18 194 54 240 118 16 22 71 122 121 222 50 99 109
214 131 254 33 62 36 72 21 73 -29 2 -4835 4 -4836 3z"/>
<path d="M1340 4209 c-146 -27 -189 -88 -545 -784 -173 -338 -303 -592 -390
-760 -40 -77 -119 -230 -175 -340 -56 -110 -131 -255 -166 -322 -53 -101 -61
-123 -47 -124 88 -5 568 -3 601 3 81 14 132 49 200 134 17 23 32 44 32 47 0 3
23 45 50 93 28 48 99 180 157 293 58 113 138 269 178 346 40 77 125 244 190
370 65 127 148 289 185 360 37 72 127 247 200 390 73 143 137 266 143 273 5 7
7 16 3 20 -9 9 -568 10 -616 1z"/>
<path d="M2316 4208 c-56 -12 -109 -43 -148 -86 -31 -34 -138 -203 -138 -218
0 -2 -10 -21 -23 -42 -13 -20 -74 -136 -137 -257 -62 -121 -148 -287 -190
-370 -43 -82 -130 -253 -195 -380 -65 -126 -147 -286 -183 -355 -259 -501
-314 -613 -304 -619 5 -3 142 -6 304 -5 340 1 371 6 443 79 73 72 130 171 380
660 65 127 148 289 185 360 37 72 122 238 190 370 67 132 155 303 195 380 214
413 246 478 240 483 -9 10 -575 9 -619 0z"/>
<path d="M3302 4208 c-77 -13 -150 -68 -205 -154 -43 -68 -200 -361 -327 -609
-67 -132 -163 -318 -211 -412 -49 -95 -129 -251 -178 -345 -48 -95 -139 -272
-201 -393 -62 -121 -135 -262 -162 -314 -26 -52 -44 -97 -39 -100 13 -8 557
-6 612 3 59 9 125 51 171 107 61 76 178 292 469 864 60 118 84 165 323 630 65
127 173 336 239 465 66 129 124 241 130 248 5 6 6 13 1 13 -36 5 -590 3 -622
-3z"/>
<path d="M4469 4209 c-65 -10 -120 -41 -168 -95 -65 -74 -142 -214 -446 -809
-128 -250 -234 -457 -370 -720 -40 -77 -128 -248 -195 -380 -68 -132 -133
-259 -146 -282 -15 -28 -19 -43 -11 -45 7 -2 145 -3 307 -3 314 2 340 5 413
53 34 23 95 95 123 147 47 86 78 142 84 150 8 10 70 129 270 520 134 261 289
561 311 604 46 87 125 152 214 176 17 5 228 9 470 10 423 2 442 2 487 22 55
25 64 38 173 248 162 314 204 399 199 404 -8 8 -1661 7 -1715 0z"/>
</g>
</svg>
