<?xml version="1.0" encoding="UTF-8" standalone="no"?>
<!-- Uploaded to: SVG Repo, www.svgrepo.com, Generator: SVG Repo Mixer Tools -->

<svg
   fill="#000000"
   version="1.1"
   id="Capa_1"
   width="800px"
   height="800px"
   viewBox="0 0 124 124"
   xml:space="preserve"
   sodipodi:docname="hamb.svg"
   inkscape:version="1.3.2 (091e20e, 2023-11-25, custom)"
   xmlns:inkscape="http://www.inkscape.org/namespaces/inkscape"
   xmlns:sodipodi="http://sodipodi.sourceforge.net/DTD/sodipodi-0.dtd"
   xmlns="http://www.w3.org/2000/svg"
   xmlns:svg="http://www.w3.org/2000/svg"><defs
   id="defs3" /><sodipodi:namedview
   id="namedview3"
   pagecolor="#ffffff"
   bordercolor="#000000"
   borderopacity="0.25"
   inkscape:showpageshadow="2"
   inkscape:pageopacity="0.0"
   inkscape:pagecheckerboard="0"
   inkscape:deskcolor="#d1d1d1"
   inkscape:zoom="2.30625"
   inkscape:cx="400"
   inkscape:cy="400"
   inkscape:window-width="3840"
   inkscape:window-height="2080"
   inkscape:window-x="2869"
   inkscape:window-y="-11"
   inkscape:window-maximized="1"
   inkscape:current-layer="Capa_1" />
<g
   id="g3"
   style="fill:#ffffff">
	<path
   d="M112,6H12C5.4,6,0,11.4,0,18s5.4,12,12,12h100c6.6,0,12-5.4,12-12S118.6,6,112,6z"
   id="path1"
   style="fill:#ffffff" />
	<path
   d="M112,50H12C5.4,50,0,55.4,0,62c0,6.6,5.4,12,12,12h100c6.6,0,12-5.4,12-12C124,55.4,118.6,50,112,50z"
   id="path2"
   style="fill:#ffffff" />
	<path
   d="M112,94H12c-6.6,0-12,5.4-12,12s5.4,12,12,12h100c6.6,0,12-5.4,12-12S118.6,94,112,94z"
   id="path3"
   style="fill:#ffffff" />
</g>
</svg>
