<svg xmlns="http://www.w3.org/2000/svg" viewBox="0 0 1289.74207 112.52515"><defs><style>.a{fill:#81c4ff;}.b{fill:#16588e;}.c{fill:#d10022;}.d{fill:#fff;}</style></defs><path class="a" d="M19.63252,112.51308H0L34.443,45.49681c4.42839-7.3991,6.27841-14.02323,14.02323-14.02323H68.09877l-34.443,67.01627C29.26426,105.8705,27.37734,112.51308,19.63252,112.51308Z"/><path class="b" d="M53.6819,112.51308H34.04938l34.443-67.01627c4.42839-7.3991,6.27841-14.02323,14.02323-14.02323h19.63252l-34.443,67.01627C63.31365,105.8705,61.42672,112.51308,53.6819,112.51308Z"/><path class="c" d="M87.73129,112.51308H68.09877l34.443-67.01627c4.42838-7.3991,6.27841-14.02323,14.02322-14.02323h19.63252l-34.443,67.01627C97.363,105.8705,95.4761,112.51308,87.73129,112.51308Z"/><path class="d" d="M213.3004,31.5083l-8.98409,17.45423c-3.54323,6.88072-3.09444,5.993-18.88468,6.04866,0,0-11.35254-.082-15.1358-.00936-5.02067.09641-8.43376,1.82225-10.98486,6.71251-4.78245,9.16757-18.90328,36.78758-18.90328,36.78758-4.3939,7.37623-6.28238,14.02323-14.02323,14.02323H106.75194l34.44113-67.01233c4.43133-7.40425,6.273-14.02323,14.02323-14.02323h11.2373l.4768-.02807Z"/><path class="d" d="M52.54124,6.13256,43.58,23.6006l169.77225-.05626c8.60468-.56286,15.34294.81465,18.87805-6.0763L241.19153,0,71.41928.05626C62.84786.59471,56.07634-.75839,52.54124,6.13256Z"/><path class="d" d="M354.01159,18.41231q12.99867,0,16.07774,5.17469,3.0763,5.17593-1.80869,15.64979l-2.824,6.0582a33.484,33.484,0,0,1-15.55229,16.02869q6.3531,5.049,1.11709,16.28129l-3.41321,7.31938a51.42185,51.42185,0,0,1-5.374,9.0876,32.39889,32.39889,0,0,1-6.93067,6.87794,29.70241,29.70241,0,0,1-8.908,4.35435,38.982,38.982,0,0,1-11.30892,1.51439H240.11856q-3.78722,0-2.02083-3.786l37.66555-80.77373a5.82052,5.82052,0,0,1,5.55238-3.7866Zm-80.71426,50.484-8.76878,18.80488q-.7661,1.64253.87553,1.6407h51.747a15.35,15.35,0,0,0,8.04715-1.83015,13.05945,13.05945,0,0,0,4.88163-5.86814l2.23664-4.7964q1.82371-3.91137.43164-5.93129-1.397-2.01867-7.70381-2.0196Zm6.415-13.75709h51.747q6.309,0,9.46405-1.89269a12.36332,12.36332,0,0,0,4.862-5.55361l2.0006-4.29058q1.82372-3.91137.46965-5.74367-1.35652-1.82648-6.2777-1.82893H290.35728a2.52344,2.52344,0,0,0-2.40587,1.64009Z"/><path class="d" d="M418.504,18.41231a23.511,23.511,0,0,1,4.61983.37829,5.29415,5.29415,0,0,1,2.85712,1.45124,5.68743,5.68743,0,0,1,1.35989,2.90249,21.67493,21.67493,0,0,1,.195,4.86017l-1.99815,60.58076q-.02574,1.13488,1.23727,1.13549h1.5144a3.06924,3.06924,0,0,0,2.29673-1.13549L485.0878,28.0045a58.26868,58.26868,0,0,1,4.72713-4.86017,21.09789,21.09789,0,0,1,4.06618-2.90249,14.02788,14.02788,0,0,1,4.14834-1.45124,28.29537,28.29537,0,0,1,4.90922-.37829h13.50449q6.55912,0,7.45059,2.96625.88841,2.96595-2.46534,10.15872L487.647,103.98244a4.35325,4.35325,0,0,1-4.19739,2.77619H470.57535q-2.77741,0-1.48129-2.77619L499.81485,38.1013q.58859-1.26087-.42-1.26241h-1.13671a2.65645,2.65645,0,0,0-2.11219,1.0098l-51.8598,56.54217a72.94086,72.94086,0,0,1-5.76942,5.74183,36.02988,36.02988,0,0,1-5.2029,3.84975,18.50858,18.50858,0,0,1-5.1655,2.1453,24.74605,24.74605,0,0,1-5.78475.63089H416.306a17.86648,17.86648,0,0,1-5.19493-.63089,6.006,6.006,0,0,1-3.16552-2.1453,9.69346,9.69346,0,0,1-1.6125-3.84975,25.743,25.743,0,0,1-.41446-5.74183l.87185-56.54217q.092-1.008-1.16921-1.0098h-1.13672q-1.01164,0-1.59839,1.26241l-30.72079,65.88114a4.26858,4.26858,0,0,1-4.07109,2.77619H355.22q-2.90433,0-1.60759-2.77619l33.78146-72.44516q3.355-7.19277,7.00976-10.15872,3.65387-2.9641,10.34326-2.96625Z"/><path class="d" d="M553.04128,18.41231q1.26,0,1.00183,1.64069L542.82554,87.95375q-.28694.88381.5984.8835h.63029a1.8347,1.8347,0,0,0,1.42243-.8835l49.46006-62.22084a20.81274,20.81274,0,0,1,6.366-5.80559,13.88484,13.88484,0,0,1,6.38683-1.515H620.1836q4.16613,0,5.60879,1.64069,1.44113,1.64163.9491,5.67991l-8.0637,62.22084q-.16.88381.59718.8835h.75781a1.83094,1.83094,0,0,0,1.4212-.8835L673.0575,20.053a3.8088,3.8088,0,0,1,1.43775-1.32494,3.36722,3.36722,0,0,1,1.347-.31575h17.03849c.672,0,.935.29613.78724.8835a5.61382,5.61382,0,0,1-1.13181,2.0196L632.93458,97.16705q-4.41812,5.679-7.47389,7.63574a12.21361,12.21361,0,0,1-6.71729,1.95584H603.97711q-3.66215,0-4.80192-2.019-1.14132-2.01777-.4439-7.57259L606.871,37.2178q.28509-.882-.59718-.8835h-.5052a1.61332,1.61332,0,0,0-1.42121.8835L556.32574,97.16705q-4.48433,5.5539-7.507,7.57259a11.7787,11.7787,0,0,1-6.68419,2.019H527.746a13.86177,13.86177,0,0,1-3.54565-.3789,3.73664,3.73664,0,0,1-2.16308-1.45125,5.34805,5.34805,0,0,1-.82586-2.965,25.50113,25.50113,0,0,1,.40588-4.7964l12.14767-75.85164a5.04352,5.04352,0,0,1,.78233-2.08276,1.82226,1.82226,0,0,1,1.58184-.82034Z"/><path class="c" d="M838.68325,18.41231q2.9025,0,1.60943,2.77618L834.70107,33.1792a4.354,4.354,0,0,1-4.19862,2.77558H775.7279a38.85523,38.85523,0,0,0-8.52293.82035,18.163,18.163,0,0,0-6.40644,2.77741,21.71188,21.71188,0,0,0-5.18513,5.301,52.81158,52.81158,0,0,0-4.675,8.266l-1.17719,2.5242h70.93016q2.77374,0,1.48129,2.77742L817.524,68.39045a4.26913,4.26913,0,0,1-4.07109,2.77742H742.52277l-15.30215,32.81457a4.26858,4.26858,0,0,1-4.07109,2.77619H709.51874q-2.90433,0-1.60759-2.77619l24.36522-52.251A80.63547,80.63547,0,0,1,741.4118,36.3343a45.32891,45.32891,0,0,1,10.98091-10.28686,43.38849,43.38849,0,0,1,13.62466-5.8056,72.99539,72.99539,0,0,1,17.13352-1.82953Z"/><path class="c" d="M927.40787,18.41231q9.59037,0,15.49222,1.82953,5.8951,1.832,8.27216,5.8056,2.37275,3.97575,1.32433,10.28686a62.208,62.208,0,0,1-5.28629,15.39718l-10.12254,21.708A83.89564,83.89564,0,0,1,927.9842,88.9004a44.2919,44.2919,0,0,1-10.94657,10.34879,42.26586,42.26586,0,0,1-13.65777,5.74244,75.82264,75.82264,0,0,1-17.16847,1.767H847.21231a55.0734,55.0734,0,0,1-15.45665-1.767q-5.86752-1.76485-8.23905-5.74244-2.37461-3.97575-1.35806-10.34879a60.68112,60.68112,0,0,1,5.25379-15.46094l10.12255-21.708a80.635,80.635,0,0,1,9.13543-15.39718,45.32869,45.32869,0,0,1,10.9809-10.28686,43.38849,43.38849,0,0,1,13.62466-5.8056,72.99554,72.99554,0,0,1,17.13353-1.82953Zm-80.0386,53.63906a41.78437,41.78437,0,0,0-3.03493,8.266,8.01066,8.01066,0,0,0,.24218,5.30162,5.74316,5.74316,0,0,0,3.81665,2.77619,28.96524,28.96524,0,0,0,7.75776.821h37.48468a38.66967,38.66967,0,0,0,8.52292-.821,18.089,18.089,0,0,0,6.40706-2.77619,21.71346,21.71346,0,0,0,5.18451-5.30162,52.92893,52.92893,0,0,0,4.67562-8.266l8.82765-18.9318a41.83308,41.83308,0,0,0,3.03369-8.266,8.02262,8.02262,0,0,0-.24156-5.301,5.76718,5.76718,0,0,0-3.81726-2.77741,29.09055,29.09055,0,0,0-7.75715-.82035H880.98641a38.8552,38.8552,0,0,0-8.52292.82035,18.163,18.163,0,0,0-6.40645,2.77741,21.71185,21.71185,0,0,0-5.18512,5.301,52.81156,52.81156,0,0,0-4.675,8.266Z"/><path class="c" d="M1049.955,18.41231q14.51246,0,17.76565,6.56279,3.24828,6.56463-2.75289,19.43639l-3.355,7.19369q-5.06189,10.8549-12.42051,17.16479a36.24459,36.24459,0,0,1-18.15558,8.07719l9.10477,26.75638q.3366.63365-.504,1.89269a2.91359,2.91359,0,0,1-2.6082,1.2624h-16.28068a3.69964,3.69964,0,0,1-2.0944-.3789,2.31259,2.31259,0,0,1-.67443-1.26118l-7.69951-26.2524H969.51422l-11.71174,25.11629a4.26746,4.26746,0,0,1-4.07109,2.77619H940.1006q-2.90433,0-1.60759-2.77619l38.13581-81.78353a5.8222,5.8222,0,0,1,5.55238-3.7866Zm-73.26,45.05605h48.338q6.43773,0,10.38128-2.77619a20.72717,20.72717,0,0,0,6.59468-8.4561l2.47208-5.301q2.64867-5.679,1.29122-8.45487-1.35559-2.77557-7.79147-2.77741H991.28229a2.41433,2.41433,0,0,0-2.347,1.515Z"/><path class="c" d="M1181.59347,18.41231q2.77374,0,1.48252,2.77618l-5.7682,12.36962a4.38023,4.38023,0,0,1-4.13117,2.90126H1117.0152a38.7962,38.7962,0,0,0-8.52477.82158,18.14054,18.14054,0,0,0-6.40583,2.77619,21.6966,21.6966,0,0,0-5.15508,5.23785,52.46906,52.46906,0,0,0-4.705,8.32918l-8.35677,17.92137a42.655,42.655,0,0,0-3.09378,8.39417,8.012,8.012,0,0,0,.24156,5.30039,5.75062,5.75062,0,0,0,3.816,2.7768,29.01546,29.01546,0,0,0,7.75959.82035h56.16142q2.77741,0,1.48374,2.77619l-5.76819,12.369a4.269,4.269,0,0,1-4.07232,2.77619H1083.4753a55.07349,55.07349,0,0,1-15.45665-1.767q-5.86752-1.76485-8.239-5.74244-2.37461-3.97575-1.35866-10.34879a60.70971,60.70971,0,0,1,5.2544-15.46094l10.12254-21.708a80.6671,80.6671,0,0,1,9.13543-15.39718,45.32891,45.32891,0,0,1,10.98091-10.28686,43.38233,43.38233,0,0,1,13.62466-5.8056,72.9974,72.9974,0,0,1,17.13291-1.82953Z"/><path class="c" d="M1287.73365,18.41231q2.90249,0,1.61,2.77618l-5.59162,11.99071a4.354,4.354,0,0,1-4.19862,2.77558H1224.4a38.82579,38.82579,0,0,0-8.52109.82035,18.807,18.807,0,0,0-6.47082,2.77741,20.292,20.292,0,0,0-5.18574,5.301,56.75458,56.75458,0,0,0-4.61185,8.266l-.5886,1.26241H1270.331q2.77374,0,1.48129,2.77619l-4.64987,9.9711a4.267,4.267,0,0,1-4.06986,2.77619h-71.30906l-1.00061,2.14591a45.65048,45.65048,0,0,0-3.09746,8.266,7.50048,7.50048,0,0,0,.2428,5.30162,5.97912,5.97912,0,0,0,3.87979,2.77619,28.954,28.954,0,0,0,7.75715.821h55.15345q2.90248,0,1.60882,2.77619l-5.59162,11.99009a4.35373,4.35373,0,0,1-4.19862,2.77619H1191.0048a55.07344,55.07344,0,0,1-15.45665-1.767q-5.86752-1.76485-8.23905-5.74244-2.3746-3.97575-1.35744-10.34879a60.65177,60.65177,0,0,1,5.25318-15.46094l10.12254-21.708a80.60336,80.60336,0,0,1,9.13543-15.39718,45.32869,45.32869,0,0,1,10.9809-10.28686,43.39466,43.39466,0,0,1,13.62466-5.8056,72.99359,72.99359,0,0,1,17.13414-1.82953Z"/></svg>